# xmcd
#
# Track frame offsets: 
#        150
#        23362
#        44174
#        64349
#        86174
#        120786
#        138148
#        164285
#        181122
#
# Disc length: 2681 seconds
#
# Revision: 0
# Processed by: cddbd v1.5.2PL0 Copyright (c) Steve Scherf et al.
# Submitted via: ExactAudioCopy v1.3
#
DISCID=6b0a7709
DTITLE=Kelvynator - Funk 4 Wha Cha Know
DYEAR=2013
DGENRE=Funk
TTITLE0=Dream of U
TTITLE1=2Paks of Chopra
TTITLE2=Funk 4 Wha Cha Know
TTITLE3=Touch Me
TTITLE4=JAM aaladeen 1
TTITLE5=Thank U 4 Talkin 2 Me Africa
TTITLE6=Levitation
TTITLE7=So Funkay
TTITLE8=Thought 6
EXTD=
EXTT0=
EXTT1=
EXTT2=
EXTT3=
EXTT4=
EXTT5=
EXTT6=
EXTT7=
EXTT8=
PLAYORDER=
